<svg width="48" height="48" viewBox="0 0 48 48" fill="none" xmlns="http://www.w3.org/2000/svg">
<g filter="url(#filter0_d_23_17)">
<rect width="40" height="40" rx="3" fill="#232F3E"/>
</g>
<path d="M30.4688 31H15.8125C15.4375 31 15.0312 30.9583 14.5938 30.875C14.1667 30.7812 13.7396 30.6406 13.3125 30.4531C12.8958 30.2656 12.4948 30.026 12.1094 29.7344C11.724 29.4323 11.3802 29.0729 11.0781 28.6562C10.7865 28.2292 10.5521 27.7396 10.375 27.1875C10.1979 26.625 10.1094 25.9948 10.1094 25.2969V14.2969C10.1094 13.9219 10.151 13.5208 10.2344 13.0938C10.3281 12.6562 10.4688 12.2292 10.6562 11.8125C10.8438 11.3854 11.0885 10.9792 11.3906 10.5938C11.6927 10.2083 12.0521 9.86979 12.4688 9.57812C12.8958 9.27604 13.3854 9.03646 13.9375 8.85938C14.4896 8.68229 15.1146 8.59375 15.8125 8.59375H30.4688V12.6562H15.8125C15.2812 12.6562 14.875 12.7969 14.5938 13.0781C14.3125 13.3594 14.1719 13.776 14.1719 14.3281V25.2969C14.1719 25.8177 14.3125 26.224 14.5938 26.5156C14.8854 26.7969 15.2917 26.9375 15.8125 26.9375H30.4688V31Z" fill="white"/>
<defs>
<filter id="filter0_d_23_17" x="0" y="0" width="48" height="48" filterUnits="userSpaceOnUse" color-interpolation-filters="sRGB">
<feFlood flood-opacity="0" result="BackgroundImageFix"/>
<feColorMatrix in="SourceAlpha" type="matrix" values="0 0 0 0 0 0 0 0 0 0 0 0 0 0 0 0 0 0 127 0" result="hardAlpha"/>
<feOffset dx="4" dy="4"/>
<feGaussianBlur stdDeviation="2"/>
<feComposite in2="hardAlpha" operator="out"/>
<feColorMatrix type="matrix" values="0 0 0 0 0 0 0 0 0 0 0 0 0 0 0 0 0 0 0.33 0"/>
<feBlend mode="normal" in2="BackgroundImageFix" result="effect1_dropShadow_23_17"/>
<feBlend mode="normal" in="SourceGraphic" in2="effect1_dropShadow_23_17" result="shape"/>
</filter>
</defs>
</svg>
