<svg width="48" height="48" viewBox="0 0 48 48" fill="none" xmlns="http://www.w3.org/2000/svg">
<g filter="url(#filter0_d_23_12)">
<rect width="40" height="40" rx="3" fill="#2E4361"/>
</g>
<rect x="12" y="9" width="4" height="22" fill="white"/>
<rect x="12" y="9" width="7" height="4" fill="white"/>
<rect x="19.1213" y="9" width="12" height="3.52833" transform="rotate(45 19.1213 9)" fill="white"/>
<rect x="12" y="27" width="16" height="4" fill="white"/>
<rect x="24" y="18" width="4" height="12" fill="white"/>
<path d="M27.4727 17.8242C27.4691 17.8348 27.4304 17.8574 27.4201 17.8652C27.388 17.8898 27.3815 17.9346 27.383 17.9722C27.3845 18.0092 27.4176 18.0444 27.4562 18.043C27.4765 18.0422 27.5164 18.0064 27.5069 17.9844C27.4928 17.9514 27.4969 17.907 27.4609 17.885C27.4387 17.8714 27.4277 17.8848 27.4119 17.9006C27.3938 17.9187 27.3853 17.9512 27.3867 17.9766C27.3872 17.985 27.4106 17.936 27.4141 17.9297C27.4268 17.9068 27.4351 17.8719 27.4288 17.8455C27.4187 17.8027 27.3769 17.8582 27.3689 17.8737C27.3419 17.9263 27.313 17.9789 27.2891 18.0328C27.2867 18.038 27.278 18.006 27.2773 18.003C27.2719 17.9779 27.2714 17.9508 27.2773 17.9258C27.2835 17.8997 27.2851 17.8712 27.293 17.8459C27.2946 17.8407 27.3021 17.8259 27.2999 17.8309C27.2958 17.8402 27.2858 17.8493 27.2795 17.8572C27.2573 17.8852 27.2334 17.9096 27.2129 17.9392C27.2013 17.956 27.1841 17.9715 27.1758 17.9902C27.1748 17.9926 27.1671 18.009 27.1686 17.9974C27.1711 17.9787 27.1879 17.9687 27.1968 17.9536C27.2115 17.9287 27.224 17.9067 27.2461 17.8869C27.2562 17.8779 27.2656 17.869 27.2773 17.8624C27.2802 17.8608 27.2942 17.8493 27.2836 17.8585C27.2469 17.8907 27.1989 17.9154 27.1584 17.9431C27.1368 17.9579 27.1122 17.9777 27.0883 17.9883C27.0854 17.9896 27.0796 17.9977 27.0859 17.9922C27.0976 17.9819 27.1168 17.972 27.1306 17.9648C27.1825 17.9382 27.2399 17.9228 27.293 17.8984C27.3169 17.8874 27.3688 17.906 27.3806 17.9297C27.3855 17.9394 27.3861 17.9653 27.377 17.9727C27.363 17.9838 27.4418 18.0008 27.451 18.003C27.4762 18.0092 27.4913 18.0162 27.5126 18.0304C27.5163 18.0328 27.5156 18.0112 27.5154 18.0096C27.5135 17.9898 27.5077 17.9641 27.4976 17.9471C27.4712 17.9022 27.4362 17.856 27.4299 17.8027C27.429 17.7952 27.428 17.7725 27.4297 17.7799C27.4327 17.7937 27.4457 17.8043 27.4501 17.8181C27.4699 17.8809 27.5361 17.9235 27.5751 17.9735C27.5871 17.9889 27.6553 18.0478 27.6641 18.0041C27.6732 17.9583 27.6786 17.8991 27.6539 17.8572C27.6288 17.8147 27.5942 17.7766 27.572 17.7322C27.5639 17.716 27.5748 17.7499 27.5768 17.7539C27.587 17.7742 27.6001 17.7941 27.6115 17.8138C27.6318 17.8488 27.6475 17.8844 27.671 17.918C27.6773 17.9269 27.7172 17.9754 27.707 17.9805" stroke="white" stroke-width="0.1"/>
<path d="M27.5547 17.75C27.5557 17.7593 27.5679 17.772 27.5723 17.7808C27.5806 17.7975 27.5865 17.8113 27.5918 17.8296C27.6053 17.876 27.6082 17.9238 27.6094 17.9718C27.6097 17.9849 27.6198 17.9789 27.6146 17.9746C27.5963 17.9596 27.5731 17.9531 27.5564 17.9351C27.5419 17.9194 27.5373 17.8972 27.5213 17.8837C27.5052 17.8701 27.5092 17.8378 27.507 17.819C27.5053 17.8052 27.4975 17.7948 27.4963 17.7799C27.4944 17.7559 27.5029 17.7742 27.5037 17.7886C27.5044 17.8023 27.501 17.8085 27.4961 17.8199C27.4854 17.8445 27.5029 17.8633 27.5039 17.8867C27.5041 17.8904 27.4961 17.8989 27.4961 17.8939C27.4961 17.8783 27.5059 17.8704 27.5015 17.8535C27.4904 17.8102 27.4679 17.7724 27.4523 17.7313C27.4487 17.7218 27.4433 17.7212 27.4356 17.7289C27.4283 17.7362 27.4239 17.7461 27.4171 17.7539C27.4083 17.764 27.3963 17.7703 27.3867 17.7795C27.3718 17.7939 27.3542 17.8052 27.3399 17.8203C27.3284 17.8323 27.3234 17.8299 27.3368 17.8181C27.3628 17.7953 27.3785 17.7633 27.4043 17.7402C27.4164 17.7294 27.4316 17.7142 27.4405 17.7022C27.4501 17.6895 27.4086 17.7123 27.3982 17.7244C27.3922 17.7314 27.356 17.7418 27.378 17.7244C27.3929 17.7126 27.4045 17.6941 27.4199 17.6838C27.4373 17.6722 27.4529 17.6955 27.4618 17.7109C27.4678 17.7212 27.4734 17.7297 27.479 17.7402C27.4844 17.7505 27.4851 17.7622 27.4902 17.7715C27.4948 17.7797 27.4965 17.7808 27.503 17.786C27.5109 17.7923 27.5074 17.7758 27.5087 17.7704C27.5128 17.7529 27.5234 17.7443 27.5234 17.7244C27.5234 17.7016 27.5195 17.6793 27.5195 17.6565C27.5195 17.6404 27.5321 17.6169 27.5421 17.6406C27.5526 17.6654 27.5621 17.6918 27.5764 17.7153C27.585 17.7293 27.5949 17.7431 27.6007 17.7587C27.6025 17.7636 27.6089 17.7752 27.6094 17.7626C27.6104 17.7369 27.6027 17.7209 27.5942 17.6975C27.5922 17.6919 27.598 17.6875 27.5929 17.6875C27.5838 17.6875 27.5747 17.6875 27.5655 17.6875C27.5508 17.6875 27.5235 17.6879 27.5122 17.6779C27.5075 17.6738 27.4924 17.6572 27.4922 17.6515C27.4916 17.6361 27.5115 17.5784 27.5243 17.6055C27.5335 17.6248 27.5463 17.6402 27.559 17.6567C27.5743 17.6762 27.584 17.6973 27.5977 17.7179C27.6018 17.724 27.6016 17.7287 27.6016 17.7359C27.6016 17.745 27.6024 17.7176 27.6014 17.7085C27.599 17.6885 27.5945 17.6733 27.5859 17.6562" stroke="white" stroke-width="0.1"/>
<path d="M27.8516 17.9844C27.8329 17.9634 27.8066 17.9504 27.7765 17.9492C27.7688 17.9489 27.7506 17.9457 27.75 17.957C27.7488 17.9788 27.7711 17.9819 27.7869 17.992C27.8168 18.0111 27.8546 18.017 27.8867 18.0313C27.8918 18.0335 27.9155 18.0398 27.921 18.0343C27.9279 18.0274 27.9074 18.0135 27.9021 18.0117C27.8954 18.0095 27.8776 17.9945 27.8731 17.9885C27.8686 17.9825 27.8472 17.9707 27.8399 17.967C27.828 17.9611 27.8157 17.9562 27.803 17.951C27.7916 17.9463 27.8041 17.941 27.7999 17.9345C27.7973 17.9303 27.7931 17.9314 27.7899 17.9288C27.7765 17.9178 27.7539 17.9039 27.7539 17.8848C27.7539 17.8745 27.7473 17.8606 27.7402 17.8535C27.7354 17.8487 27.7351 17.8462 27.7344 17.8399C27.7334 17.8311 27.7239 17.835 27.7196 17.8312C27.7033 17.8164 27.6878 17.7973 27.6788 17.7774C27.6709 17.7597 27.6553 17.7482 27.6467 17.7305C27.6411 17.7189 27.628 17.7098 27.6252 17.6973C27.6209 17.6777 27.5998 17.6629 27.5929 17.6437C27.5884 17.6313 27.5781 17.6282 27.5781 17.6133C27.5781 17.6057 27.57 17.6008 27.5647 17.5955C27.5602 17.591 27.5491 17.5688 27.5469 17.5623C27.5442 17.5542 27.5328 17.5454 27.5315 17.5408C27.5293 17.5331 27.546 17.5468 27.5467 17.5491C27.5502 17.5616 27.56 17.5553 27.5656 17.5664C27.5701 17.5755 27.5798 17.5736 27.5851 17.582C27.5895 17.5891 27.5941 17.6015 27.5996 17.607C27.6121 17.6195 27.6137 17.6419 27.6259 17.6554C27.6311 17.6612 27.6361 17.6688 27.6398 17.6758C27.644 17.6838 27.6549 17.684 27.6593 17.6914C27.6672 17.7048 27.6848 17.7239 27.6971 17.7309C27.7052 17.7355 27.7014 17.7527 27.7073 17.7596C27.7157 17.7694 27.7272 17.7746 27.7344 17.7873C27.7361 17.7904 27.7504 17.8037 27.7539 17.8056C27.7703 17.8143 27.7595 17.8207 27.7678 17.8338C27.7701 17.8374 27.7863 17.8555 27.7871 17.8555C27.7938 17.8555 27.7967 17.8685 27.8027 17.8733C27.8224 17.8885 27.841 17.9065 27.8633 17.9171C27.8832 17.9266 27.8966 17.946 27.9158 17.957C27.9246 17.962 27.9179 17.9718 27.9238 17.9766C27.9305 17.9819 27.9318 17.9893 27.9384 17.9952C27.9429 17.9993 27.9559 18.0136 27.9501 17.997C27.9465 17.9867 27.9236 17.9696 27.9141 17.964C27.9054 17.9589 27.8946 17.9374 27.8867 17.9288C27.8771 17.9183 27.8617 17.9289 27.8535 17.9217C27.8466 17.9155 27.8418 17.9098 27.8359 17.9024C27.8259 17.8894 27.8272 17.8837 27.824 17.8692C27.8213 17.8569 27.8114 17.8464 27.8056 17.8359C27.7987 17.8236 27.7905 17.8139 27.7821 17.803C27.772 17.7898 27.7704 17.7732 27.7615 17.7598C27.7562 17.7519 27.7405 17.7453 27.7385 17.7363C27.7356 17.7232 27.7305 17.7114 27.7207 17.7016C27.7128 17.6937 27.7059 17.6844 27.7012 17.6741C27.6964 17.6635 27.6994 17.6552 27.6906 17.6454C27.6792 17.6328 27.6717 17.6068 27.6541 17.6018C27.6403 17.5978 27.6211 17.5927 27.6211 17.5742" stroke="white" stroke-width="0.1"/>
<path d="M27.6211 17.5586C27.6205 17.554 27.6172 17.5547 27.6133 17.5547" stroke="white" stroke-width="0.1"/>
<path d="M27.6562 17.5938V17.5977" stroke="white" stroke-width="0.1"/>
<path d="M27.625 17.5898C27.6262 17.5886 27.6396 17.575 27.6389 17.5742C27.638 17.5733 27.6198 17.5742 27.6309 17.5742C27.6485 17.5742 27.6201 17.5625 27.6133 17.5625C27.5906 17.5625 27.5937 17.5542 27.5803 17.5408C27.5763 17.5368 27.5915 17.5641 27.5977 17.5703" stroke="white" stroke-width="0.1"/>
<path d="M19.0078 9.10548C19.0078 9.09009 19.0308 9.09282 19.0308 9.084C19.0308 9.08132 19.0004 9.09117 19.0004 9.09203C19.0004 9.0991 19.0113 9.09767 19.0156 9.09767C19.0248 9.09767 19.0201 9.09164 19.0256 9.09008C19.0306 9.08866 19.0042 9.10354 19.0041 9.10331C18.9977 9.08097 19.0115 9.0508 19.0351 9.0508C19.0478 9.0508 19.0571 9.05196 19.0673 9.04385C19.0761 9.03681 19.0898 9.04496 19.0898 9.0547" stroke="white" stroke-width="0.1"/>
<path d="M18.9961 9.10938C18.9936 9.10969 18.9645 9.16425 19.0039 9.14453" stroke="white" stroke-width="0.1"/>
<path d="M19.0312 9.08984C19.0112 9.08984 18.9963 9.10896 18.9883 9.125" stroke="white" stroke-width="0.1"/>
<defs>
<filter id="filter0_d_23_12" x="0" y="0" width="48" height="48" filterUnits="userSpaceOnUse" color-interpolation-filters="sRGB">
<feFlood flood-opacity="0" result="BackgroundImageFix"/>
<feColorMatrix in="SourceAlpha" type="matrix" values="0 0 0 0 0 0 0 0 0 0 0 0 0 0 0 0 0 0 127 0" result="hardAlpha"/>
<feOffset dx="4" dy="4"/>
<feGaussianBlur stdDeviation="2"/>
<feComposite in2="hardAlpha" operator="out"/>
<feColorMatrix type="matrix" values="0 0 0 0 0 0 0 0 0 0 0 0 0 0 0 0 0 0 0.33 0"/>
<feBlend mode="normal" in2="BackgroundImageFix" result="effect1_dropShadow_23_12"/>
<feBlend mode="normal" in="SourceGraphic" in2="effect1_dropShadow_23_12" result="shape"/>
</filter>
</defs>
</svg>
