<svg width="239" height="54" viewBox="0 0 239 54" fill="none" xmlns="http://www.w3.org/2000/svg">
<path d="M66.344 42.188C65.288 42.188 64.424 42.092 63.752 41.9C63.08 41.708 62.552 41.396 62.168 40.964C61.784 40.532 61.508 39.98 61.34 39.308C61.196 38.612 61.124 37.772 61.124 36.788V14.432C61.124 13.208 61.448 12.32 62.096 11.768C62.768 11.216 63.632 10.94 64.688 10.94C65.72 10.94 66.548 11.228 67.172 11.804C67.796 12.356 68.108 13.232 68.108 14.432V20.012H74.192V14.432C74.192 13.208 74.504 12.32 75.128 11.768C75.776 11.216 76.616 10.94 77.648 10.94C78.704 10.94 79.544 11.228 80.168 11.804C80.792 12.356 81.104 13.232 81.104 14.432V42.188H66.344ZM84.704 13.424C84.704 12.272 85.064 11.408 85.784 10.832C86.504 10.232 87.332 9.932 88.268 9.932C88.724 9.932 89.168 10.016 89.6 10.184C90.032 10.328 90.404 10.544 90.716 10.832C91.052 11.12 91.316 11.48 91.508 11.912C91.724 12.344 91.832 12.848 91.832 13.424V22.532H93.02C93.572 22.532 94.028 22.628 94.388 22.82C94.748 23.012 95.036 23.264 95.252 23.576C95.468 23.864 95.624 24.2 95.72 24.584C95.816 24.944 95.864 25.304 95.864 25.664C95.864 26.024 95.816 26.396 95.72 26.78C95.624 27.14 95.468 27.476 95.252 27.788C95.036 28.076 94.736 28.316 94.352 28.508C93.992 28.7 93.548 28.796 93.02 28.796H91.832V43.736H84.704V13.424ZM74.192 36.32V25.808H68.108V35.384C68.108 35.792 68.168 36.056 68.288 36.176C68.432 36.272 68.708 36.32 69.116 36.32H74.192ZM97.088 20.264C97.088 18.68 97.34 17.288 97.844 16.088C98.348 14.864 99.044 13.844 99.932 13.028C100.844 12.188 101.924 11.564 103.172 11.156C104.42 10.724 105.8 10.508 107.312 10.508C108.824 10.508 110.204 10.724 111.452 11.156C112.7 11.564 113.78 12.176 114.692 12.992C115.604 13.808 116.312 14.828 116.816 16.052C117.32 17.276 117.572 18.68 117.572 20.264V33.296C117.572 34.88 117.32 36.284 116.816 37.508C116.312 38.732 115.604 39.752 114.692 40.568C113.804 41.384 112.724 41.996 111.452 42.404C110.204 42.836 108.836 43.052 107.348 43.052C105.836 43.052 104.456 42.836 103.208 42.404C101.96 41.996 100.88 41.384 99.968 40.568C99.056 39.752 98.348 38.732 97.844 37.508C97.34 36.284 97.088 34.88 97.088 33.296V20.264ZM104.216 33.44C104.216 34.664 104.504 35.588 105.08 36.212C105.68 36.812 106.424 37.112 107.312 37.112C108.2 37.112 108.944 36.812 109.544 36.212C110.144 35.588 110.444 34.664 110.444 33.44V20.12C110.444 18.896 110.144 17.972 109.544 17.348C108.944 16.724 108.2 16.424 107.312 16.448C106.424 16.472 105.68 16.796 105.08 17.42C104.504 18.02 104.216 18.92 104.216 20.12V33.44ZM121.676 43.736V13.496C121.676 12.32 122.036 11.432 122.756 10.832C123.476 10.232 124.316 9.932 125.276 9.932C126.236 9.932 127.076 10.232 127.796 10.832C128.516 11.432 128.876 12.32 128.876 13.496V43.736H121.676ZM136.688 32.9C135.992 32.9 135.488 32.696 135.176 32.288C134.888 31.856 134.744 31.388 134.744 30.884C134.744 30.38 134.9 29.912 135.212 29.48C135.524 29.024 136.016 28.796 136.688 28.796H160.628C162.188 28.796 163.28 29.072 163.904 29.624C164.552 30.152 164.876 31.112 164.876 32.504V38.12H142.736C142.472 38.12 142.268 38.192 142.124 38.336C142.004 38.456 141.944 38.612 141.944 38.804V38.912C141.944 39.104 142.004 39.272 142.124 39.416C142.268 39.536 142.472 39.596 142.736 39.596H163.796C164.492 39.596 164.996 39.812 165.308 40.244C165.644 40.676 165.812 41.156 165.812 41.684C165.812 42.164 165.656 42.62 165.344 43.052C165.032 43.508 164.516 43.736 163.796 43.736H139.316C138.524 43.736 137.816 43.604 137.192 43.34C136.592 43.076 136.076 42.728 135.644 42.296C135.212 41.864 134.888 41.36 134.672 40.784C134.456 40.208 134.348 39.608 134.348 38.984V38.552C134.348 37.28 134.78 36.272 135.644 35.528C136.508 34.76 137.732 34.376 139.316 34.376H157.568V33.476C157.568 33.26 157.532 33.116 157.46 33.044C157.388 32.948 157.232 32.9 156.992 32.9H136.688ZM138.02 27.356C137.228 27.356 136.52 27.212 135.896 26.924C135.272 26.636 134.732 26.252 134.276 25.772C133.844 25.292 133.508 24.74 133.268 24.116C133.052 23.492 132.944 22.844 132.944 22.172V21.668C132.944 20.348 133.388 19.256 134.276 18.392C135.164 17.504 136.412 17.06 138.02 17.06H144.176V16.088C144.176 15.872 144.128 15.716 144.032 15.62C143.936 15.5 143.732 15.44 143.42 15.44H135.32C134.528 15.44 133.964 15.2 133.628 14.72C133.292 14.24 133.124 13.724 133.124 13.172C133.124 12.596 133.292 12.068 133.628 11.588C133.988 11.084 134.552 10.832 135.32 10.832H146.624C148.328 10.832 149.54 11.216 150.26 11.984C150.98 12.752 151.34 13.748 151.34 14.972V21.2H141.152C140.6 21.2 140.324 21.452 140.324 21.956V22.064C140.324 22.544 140.6 22.784 141.152 22.784H153.356C154.124 22.784 154.676 23.036 155.012 23.54C155.372 24.02 155.552 24.536 155.552 25.088C155.552 25.64 155.384 26.156 155.048 26.636C154.712 27.116 154.148 27.356 153.356 27.356H138.02ZM157.712 21.128H155.192C154.64 21.128 154.172 21.044 153.788 20.876C153.428 20.708 153.116 20.48 152.852 20.192C152.612 19.904 152.432 19.58 152.312 19.22C152.216 18.86 152.168 18.5 152.168 18.14C152.168 17.78 152.216 17.42 152.312 17.06C152.432 16.7 152.612 16.388 152.852 16.124C153.092 15.836 153.404 15.608 153.788 15.44C154.172 15.248 154.64 15.152 155.192 15.152H157.712V13.424C157.712 12.272 158.072 11.408 158.792 10.832C159.512 10.232 160.34 9.932 161.276 9.932C161.732 9.932 162.176 10.016 162.608 10.184C163.04 10.328 163.424 10.544 163.76 10.832C164.096 11.12 164.36 11.48 164.552 11.912C164.768 12.344 164.876 12.848 164.876 13.424V27.644H157.712V21.128Z" fill="white"/>
<path d="M181.328 37.184V32.072H175.496C173.408 32.072 171.932 31.628 171.068 30.74C170.204 29.828 169.772 28.4 169.772 26.456V16.628C169.772 14.684 170.204 13.268 171.068 12.38C171.932 11.468 173.408 11.012 175.496 11.012H197.312C197.816 11.012 198.236 11.096 198.572 11.264C198.932 11.432 199.22 11.648 199.436 11.912C199.676 12.176 199.844 12.476 199.94 12.812C200.036 13.148 200.084 13.484 200.084 13.82C200.084 14.516 199.868 15.152 199.436 15.728C199.004 16.304 198.296 16.592 197.312 16.592H178.16C177.44 16.592 177.08 16.904 177.08 17.528V18.86H197.096C198.104 18.86 198.812 19.148 199.22 19.724C199.652 20.3 199.868 20.912 199.868 21.56C199.868 22.232 199.652 22.856 199.22 23.432C198.788 23.984 198.08 24.26 197.096 24.26H177.08V25.556C177.08 25.916 177.164 26.168 177.332 26.312C177.524 26.456 177.8 26.528 178.16 26.528H197.888C198.392 26.528 198.812 26.612 199.148 26.78C199.508 26.948 199.796 27.164 200.012 27.428C200.252 27.692 200.42 27.992 200.516 28.328C200.612 28.64 200.66 28.964 200.66 29.3C200.66 29.996 200.444 30.632 200.012 31.208C199.58 31.784 198.872 32.072 197.888 32.072H188.672V37.184H198.824C199.376 37.184 199.844 37.268 200.228 37.436C200.612 37.604 200.924 37.832 201.164 38.12C201.404 38.384 201.572 38.696 201.668 39.056C201.788 39.392 201.848 39.74 201.848 40.1C201.848 40.844 201.608 41.516 201.128 42.116C200.672 42.716 199.904 43.016 198.824 43.016H171.176C170.096 43.016 169.316 42.716 168.836 42.116C168.38 41.516 168.152 40.844 168.152 40.1C168.152 39.74 168.2 39.392 168.296 39.056C168.416 38.696 168.596 38.384 168.836 38.12C169.076 37.832 169.388 37.604 169.772 37.436C170.156 37.268 170.624 37.184 171.176 37.184H181.328ZM224.636 14.252C224.612 15.332 224.444 16.436 224.132 17.564C225.644 17.612 227.144 17.912 228.632 18.464C230.12 19.016 231.464 19.844 232.664 20.948C233.864 22.052 234.86 23.444 235.652 25.124C236.468 26.804 236.96 28.796 237.128 31.1H229.82C229.652 29.876 229.316 28.784 228.812 27.824C228.308 26.84 227.672 26.024 226.904 25.376C226.16 24.704 225.308 24.2 224.348 23.864C223.388 23.528 222.368 23.372 221.288 23.396C220.472 24.524 219.548 25.556 218.516 26.492C217.484 27.428 216.392 28.232 215.24 28.904C214.112 29.576 212.936 30.104 211.712 30.488C210.512 30.872 209.324 31.076 208.148 31.1C207.26 31.124 206.492 30.896 205.844 30.416C205.196 29.912 204.824 29.216 204.728 28.328C204.632 27.464 204.812 26.708 205.268 26.06C205.724 25.412 206.408 24.992 207.32 24.8C208.496 24.536 209.636 24.092 210.74 23.468C211.868 22.844 212.876 22.064 213.764 21.128C214.652 20.168 215.396 19.064 215.996 17.816C216.596 16.568 216.992 15.188 217.184 13.676C217.328 12.524 217.784 11.684 218.552 11.156C219.344 10.604 220.244 10.364 221.252 10.436C222.308 10.532 223.148 10.904 223.772 11.552C224.396 12.2 224.684 13.1 224.636 14.252ZM234.752 36.932C235.304 36.932 235.772 37.028 236.156 37.22C236.564 37.388 236.888 37.616 237.128 37.904C237.392 38.192 237.572 38.528 237.668 38.912C237.788 39.272 237.848 39.632 237.848 39.992C237.848 40.376 237.788 40.748 237.668 41.108C237.548 41.468 237.356 41.792 237.092 42.08C236.852 42.368 236.54 42.596 236.156 42.764C235.772 42.932 235.304 43.016 234.752 43.016H207.248C206.696 43.016 206.228 42.932 205.844 42.764C205.46 42.596 205.136 42.368 204.872 42.08C204.632 41.792 204.452 41.468 204.332 41.108C204.212 40.748 204.152 40.376 204.152 39.992C204.152 39.632 204.2 39.272 204.296 38.912C204.416 38.528 204.596 38.192 204.836 37.904C205.1 37.616 205.424 37.388 205.808 37.22C206.216 37.028 206.696 36.932 207.248 36.932H234.752Z" fill="#3182F6"/>
<rect x="10.9473" y="17.4463" width="37.0526" height="36.5538" rx="18.2769" fill="#F8F7F7"/>
<rect x="10.9473" y="5.81543" width="37.0526" height="36.5538" rx="18.2769" fill="black"/>
<ellipse cx="20.2105" cy="19.9385" rx="20.2105" ry="19.9385" fill="#3182F6"/>
</svg>
