<svg width="50" height="20" viewBox="0 0 50 20" fill="none" xmlns="http://www.w3.org/2000/svg">
<path d="M9.948 3.88H9.144L6.468 13H3.6L0.924 3.88H0.12V3.4H5.088V3.88H3.792L6.18 12.016L8.568 3.88H7.272V3.4H9.948V3.88Z" fill="#374151"/>
<path d="M11.692 12.7143H10.972V6.49828H11.692V12.7143ZM11.728 5.14228H10.936V4.07428H11.728V5.14228ZM14.2802 9.66628V12.7143H13.5602V6.49828H14.2802V7.66228H14.3042C14.4962 7.17428 14.7482 6.83028 15.0602 6.63028C15.3722 6.43028 15.7962 6.33028 16.3322 6.33028V7.11028C15.9402 7.11028 15.6082 7.17828 15.3362 7.31428C15.0722 7.44228 14.8602 7.62228 14.7002 7.85428C14.5482 8.08628 14.4402 8.35428 14.3762 8.65828C14.3122 8.96228 14.2802 9.29828 14.2802 9.66628ZM21.5883 10.4223V9.45028C21.3163 9.56228 21.0403 9.64228 20.7603 9.69028C20.4883 9.73028 20.1443 9.76628 19.7283 9.79828C19.1603 9.83828 18.7243 9.96628 18.4202 10.1823C18.1243 10.3983 17.9763 10.7103 17.9763 11.1183C17.9763 11.4783 18.1083 11.7543 18.3723 11.9463C18.6363 12.1383 18.9523 12.2343 19.3203 12.2343C19.6163 12.2343 19.8963 12.1983 20.1603 12.1263C20.4323 12.0543 20.6763 11.9463 20.8923 11.8023C21.1083 11.6503 21.2763 11.4583 21.3963 11.2263C21.5243 10.9943 21.5883 10.7263 21.5883 10.4223ZM19.3803 9.22228L20.3763 9.09028C20.5363 9.07428 20.7083 9.05028 20.8923 9.01828C21.0763 8.97828 21.2203 8.93428 21.3243 8.88628C21.4283 8.83828 21.4963 8.75828 21.5283 8.64628C21.5683 8.52628 21.5883 8.39028 21.5883 8.23828C21.5883 7.84628 21.4643 7.53828 21.2163 7.31428C20.9683 7.09028 20.5763 6.97828 20.0403 6.97828C19.5043 6.97828 19.0843 7.08628 18.7803 7.30228C18.4763 7.51028 18.2923 7.87028 18.2283 8.38228H17.4963C17.5443 7.68628 17.8003 7.17028 18.2643 6.83428C18.7363 6.49828 19.3323 6.33028 20.0523 6.33028C20.7403 6.33028 21.2883 6.48228 21.6963 6.78628C22.1043 7.09028 22.3083 7.58228 22.3083 8.26228V11.6463C22.3083 12.0303 22.4163 12.2223 22.6323 12.2223C22.7363 12.2223 22.8803 12.1903 23.0643 12.1263V12.6903C22.9683 12.7223 22.8723 12.7503 22.7763 12.7743C22.6803 12.7983 22.5883 12.8103 22.5003 12.8103C22.3963 12.8103 22.2883 12.7983 22.1763 12.7743C21.9603 12.7423 21.8123 12.6463 21.7323 12.4863C21.6523 12.3263 21.6083 12.1143 21.6003 11.8503C21.3043 12.1863 20.9563 12.4423 20.5563 12.6183C20.1563 12.7943 19.7323 12.8823 19.2843 12.8823C18.7003 12.8823 18.2083 12.7263 17.8083 12.4143C17.4083 12.1023 17.2083 11.6623 17.2083 11.0943C17.2083 10.0383 17.9323 9.41428 19.3803 9.22228ZM25.0162 12.7143H24.2962V4.07428H25.0162V12.7143ZM26.1764 4.77028V4.07428H32.4644V4.77028H29.7284V12.7143H28.9124V4.77028H26.1764ZM34.6524 12.8823C33.8204 12.8663 33.1324 12.5783 32.5884 12.0183C32.0444 11.4503 31.7724 10.6463 31.7724 9.60628C31.7724 8.65428 32.0204 7.87028 32.5164 7.25428C33.0204 6.63828 33.7324 6.33028 34.6524 6.33028C35.5884 6.33028 36.3004 6.63828 36.7884 7.25428C37.2844 7.86228 37.5324 8.64628 37.5324 9.60628C37.5324 10.5903 37.2684 11.3823 36.7404 11.9823C36.2204 12.5823 35.5244 12.8823 34.6524 12.8823ZM36.7644 9.60628C36.7644 9.22228 36.7244 8.87428 36.6444 8.56228C36.5644 8.25028 36.4404 7.97428 36.2724 7.73428C36.1044 7.49428 35.8844 7.31028 35.6124 7.18228C35.3404 7.04628 35.0204 6.97828 34.6524 6.97828C34.2924 6.97828 33.9764 7.05028 33.7044 7.19428C33.4324 7.33828 33.2084 7.53428 33.0324 7.78228C32.8644 8.02228 32.7404 8.29828 32.6604 8.61028C32.5804 8.92228 32.5404 9.25428 32.5404 9.60628C32.5404 10.3983 32.7244 11.0343 33.0924 11.5143C33.4604 11.9943 33.9804 12.2343 34.6524 12.2343C35.0204 12.2343 35.3364 12.1623 35.6004 12.0183C35.8724 11.8743 36.0924 11.6783 36.2604 11.4303C36.4364 11.1823 36.5644 10.9023 36.6444 10.5903C36.7244 10.2783 36.7644 9.95028 36.7644 9.60628ZM38.5364 10.7703H39.2684C39.3804 11.2983 39.5804 11.6743 39.8684 11.8983C40.1644 12.1223 40.5844 12.2343 41.1284 12.2343C41.6244 12.2343 42.0044 12.1223 42.2684 11.8983C42.5324 11.6743 42.6644 11.4023 42.6644 11.0823C42.6644 10.8823 42.6164 10.7143 42.5204 10.5783C42.4324 10.4423 42.3084 10.3343 42.1484 10.2543C41.9884 10.1743 41.8124 10.1063 41.6204 10.0503C41.4284 9.99428 41.1884 9.93828 40.9004 9.88228C40.5404 9.81028 40.2444 9.74228 40.0124 9.67828C39.7804 9.60628 39.5604 9.51028 39.3524 9.39028C39.1524 9.27028 38.9884 9.10628 38.8604 8.89828C38.7404 8.68228 38.6804 8.41828 38.6804 8.10628C38.6804 7.57828 38.8764 7.15028 39.2684 6.82228C39.6604 6.49428 40.1924 6.33028 40.8644 6.33028C41.5604 6.33028 42.1124 6.48628 42.5204 6.79828C42.9284 7.11028 43.1764 7.60628 43.2644 8.28628H42.5324C42.4684 7.83028 42.2924 7.49828 42.0044 7.29028C41.7164 7.08228 41.3324 6.97828 40.8524 6.97828C40.4044 6.97828 40.0564 7.07428 39.8084 7.26628C39.5684 7.45828 39.4484 7.71828 39.4484 8.04628C39.4484 8.23028 39.4924 8.39028 39.5804 8.52628C39.6764 8.65428 39.8004 8.75828 39.9524 8.83828C40.1124 8.91828 40.2804 8.98628 40.4564 9.04228C40.6404 9.09828 40.8844 9.16228 41.1884 9.23428C41.5644 9.32228 41.8644 9.40228 42.0884 9.47428C42.3124 9.54628 42.5284 9.65028 42.7364 9.78628C42.9524 9.91428 43.1204 10.0823 43.2404 10.2903C43.3684 10.4983 43.4324 10.7583 43.4324 11.0703C43.4324 11.6463 43.2004 12.0943 42.7364 12.4143C42.2724 12.7263 41.6604 12.8823 40.9004 12.8823C40.1884 12.8823 39.6244 12.6823 39.2084 12.2823C38.7924 11.8823 38.5684 11.3783 38.5364 10.7703ZM44.5364 10.7703H45.2684C45.3804 11.2983 45.5804 11.6743 45.8684 11.8983C46.1644 12.1223 46.5844 12.2343 47.1284 12.2343C47.6244 12.2343 48.0044 12.1223 48.2684 11.8983C48.5324 11.6743 48.6644 11.4023 48.6644 11.0823C48.6644 10.8823 48.6164 10.7143 48.5204 10.5783C48.4324 10.4423 48.3084 10.3343 48.1484 10.2543C47.9884 10.1743 47.8124 10.1063 47.6204 10.0503C47.4284 9.99428 47.1884 9.93828 46.9004 9.88228C46.5404 9.81028 46.2444 9.74228 46.0124 9.67828C45.7804 9.60628 45.5604 9.51028 45.3524 9.39028C45.1524 9.27028 44.9884 9.10628 44.8604 8.89828C44.7404 8.68228 44.6804 8.41828 44.6804 8.10628C44.6804 7.57828 44.8764 7.15028 45.2684 6.82228C45.6604 6.49428 46.1924 6.33028 46.8644 6.33028C47.5604 6.33028 48.1124 6.48628 48.5204 6.79828C48.9284 7.11028 49.1764 7.60628 49.2644 8.28628H48.5324C48.4684 7.83028 48.2924 7.49828 48.0044 7.29028C47.7164 7.08228 47.3324 6.97828 46.8524 6.97828C46.4044 6.97828 46.0564 7.07428 45.8084 7.26628C45.5684 7.45828 45.4484 7.71828 45.4484 8.04628C45.4484 8.23028 45.4924 8.39028 45.5804 8.52628C45.6764 8.65428 45.8004 8.75828 45.9524 8.83828C46.1124 8.91828 46.2804 8.98628 46.4564 9.04228C46.6404 9.09828 46.8844 9.16228 47.1884 9.23428C47.5644 9.32228 47.8644 9.40228 48.0884 9.47428C48.3124 9.54628 48.5284 9.65028 48.7364 9.78628C48.9524 9.91428 49.1204 10.0823 49.2404 10.2903C49.3684 10.4983 49.4324 10.7583 49.4324 11.0703C49.4324 11.6463 49.2004 12.0943 48.7364 12.4143C48.2724 12.7263 47.6604 12.8823 46.9004 12.8823C46.1884 12.8823 45.6244 12.6823 45.2084 12.2823C44.7924 11.8823 44.5684 11.3783 44.5364 10.7703Z" fill="url(#paint0_linear_66_15)"/>
<rect width="8.89479" height="0.964506" transform="matrix(0.876269 0.481823 -0.5184 0.855138 0.5 4.7619)" fill="white"/>
<defs>
<linearGradient id="paint0_linear_66_15" x1="10" y1="11.5" x2="50" y2="11.5" gradientUnits="userSpaceOnUse">
<stop stop-color="#374151"/>
<stop offset="1"/>
</linearGradient>
</defs>
</svg>
