<svg width="48" height="48" viewBox="0 0 48 48" fill="none" xmlns="http://www.w3.org/2000/svg">
<g filter="url(#filter0_d_23_14)">
<rect width="40" height="40" rx="3" fill="#D9D9D9"/>
<rect width="40" height="40" rx="3" fill="url(#paint0_linear_23_14)"/>
</g>
<circle cx="7.5" cy="28.5" r="3.5" fill="white"/>
<circle cx="8.5" cy="11.5" r="3.5" fill="white"/>
<circle cx="18.5" cy="12.5" r="3.5" fill="white"/>
<circle cx="33.5" cy="17.5" r="3.5" fill="white"/>
<rect x="8" y="25.8905" width="14.2518" height="3" transform="rotate(-30 8 25.8905)" fill="white"/>
<rect x="23" y="22.1259" width="9.25782" height="3" transform="rotate(-30 23 22.1259)" fill="white"/>
<rect x="11.5981" y="13" width="12" height="3" transform="rotate(60 11.5981 13)" fill="white"/>
<path d="M20.5981 14L26.7663 24.6837C27.1805 25.4012 26.9347 26.3185 26.2173 26.7328C25.4999 27.147 24.5825 26.9012 24.1683 26.1837L18 15.5L20.5981 14Z" fill="white"/>
<circle cx="8.5" cy="11.5" r="1.5" fill="#00A495"/>
<circle cx="7.5" cy="28.5" r="1.5" fill="#00A495"/>
<circle cx="18.5" cy="12.5" r="1.5" fill="#08A880"/>
<circle cx="33.5" cy="17.5" r="1.5" fill="#11AC6B"/>
<defs>
<filter id="filter0_d_23_14" x="0" y="0" width="48" height="48" filterUnits="userSpaceOnUse" color-interpolation-filters="sRGB">
<feFlood flood-opacity="0" result="BackgroundImageFix"/>
<feColorMatrix in="SourceAlpha" type="matrix" values="0 0 0 0 0 0 0 0 0 0 0 0 0 0 0 0 0 0 127 0" result="hardAlpha"/>
<feOffset dx="4" dy="4"/>
<feGaussianBlur stdDeviation="2"/>
<feComposite in2="hardAlpha" operator="out"/>
<feColorMatrix type="matrix" values="0 0 0 0 0 0 0 0 0 0 0 0 0 0 0 0 0 0 0.33 0"/>
<feBlend mode="normal" in2="BackgroundImageFix" result="effect1_dropShadow_23_14"/>
<feBlend mode="normal" in="SourceGraphic" in2="effect1_dropShadow_23_14" result="shape"/>
</filter>
<linearGradient id="paint0_linear_23_14" x1="1.23866e-07" y1="18.5" x2="40" y2="19" gradientUnits="userSpaceOnUse">
<stop stop-color="#0CA294"/>
<stop offset="1" stop-color="#0FAC6C"/>
</linearGradient>
</defs>
</svg>
