<svg width="177" height="35" viewBox="0 0 177 35" fill="none" xmlns="http://www.w3.org/2000/svg">
<path d="M5.344 33.188C4.288 33.188 3.424 33.092 2.752 32.9C2.08 32.708 1.552 32.396 1.168 31.964C0.784 31.532 0.508 30.98 0.34 30.308C0.196 29.612 0.124 28.772 0.124 27.788V5.432C0.124 4.208 0.448 3.32 1.096 2.768C1.768 2.216 2.632 1.94 3.688 1.94C4.72 1.94 5.548 2.228 6.172 2.804C6.796 3.356 7.108 4.232 7.108 5.432V11.012H13.192V5.432C13.192 4.208 13.504 3.32 14.128 2.768C14.776 2.216 15.616 1.94 16.648 1.94C17.704 1.94 18.544 2.228 19.168 2.804C19.792 3.356 20.104 4.232 20.104 5.432V33.188H5.344ZM23.704 4.424C23.704 3.272 24.064 2.408 24.784 1.832C25.504 1.232 26.332 0.931999 27.268 0.931999C27.724 0.931999 28.168 1.016 28.6 1.184C29.032 1.328 29.404 1.544 29.716 1.832C30.052 2.12 30.316 2.48 30.508 2.912C30.724 3.344 30.832 3.848 30.832 4.424V13.532H32.02C32.572 13.532 33.028 13.628 33.388 13.82C33.748 14.012 34.036 14.264 34.252 14.576C34.468 14.864 34.624 15.2 34.72 15.584C34.816 15.944 34.864 16.304 34.864 16.664C34.864 17.024 34.816 17.396 34.72 17.78C34.624 18.14 34.468 18.476 34.252 18.788C34.036 19.076 33.736 19.316 33.352 19.508C32.992 19.7 32.548 19.796 32.02 19.796H30.832V34.736H23.704V4.424ZM13.192 27.32V16.808H7.108V26.384C7.108 26.792 7.168 27.056 7.288 27.176C7.432 27.272 7.708 27.32 8.116 27.32H13.192ZM36.088 11.264C36.088 9.68 36.34 8.288 36.844 7.088C37.348 5.864 38.044 4.844 38.932 4.028C39.844 3.188 40.924 2.564 42.172 2.156C43.42 1.724 44.8 1.508 46.312 1.508C47.824 1.508 49.204 1.724 50.452 2.156C51.7 2.564 52.78 3.176 53.692 3.992C54.604 4.808 55.312 5.828 55.816 7.052C56.32 8.276 56.572 9.68 56.572 11.264V24.296C56.572 25.88 56.32 27.284 55.816 28.508C55.312 29.732 54.604 30.752 53.692 31.568C52.804 32.384 51.724 32.996 50.452 33.404C49.204 33.836 47.836 34.052 46.348 34.052C44.836 34.052 43.456 33.836 42.208 33.404C40.96 32.996 39.88 32.384 38.968 31.568C38.056 30.752 37.348 29.732 36.844 28.508C36.34 27.284 36.088 25.88 36.088 24.296V11.264ZM43.216 24.44C43.216 25.664 43.504 26.588 44.08 27.212C44.68 27.812 45.424 28.112 46.312 28.112C47.2 28.112 47.944 27.812 48.544 27.212C49.144 26.588 49.444 25.664 49.444 24.44V11.12C49.444 9.896 49.144 8.972 48.544 8.348C47.944 7.724 47.2 7.424 46.312 7.448C45.424 7.472 44.68 7.796 44.08 8.42C43.504 9.02 43.216 9.92 43.216 11.12V24.44ZM60.676 34.736V4.496C60.676 3.32 61.036 2.432 61.756 1.832C62.476 1.232 63.316 0.931999 64.276 0.931999C65.236 0.931999 66.076 1.232 66.796 1.832C67.516 2.432 67.876 3.32 67.876 4.496V34.736H60.676ZM75.688 23.9C74.992 23.9 74.488 23.696 74.176 23.288C73.888 22.856 73.744 22.388 73.744 21.884C73.744 21.38 73.9 20.912 74.212 20.48C74.524 20.024 75.016 19.796 75.688 19.796H99.628C101.188 19.796 102.28 20.072 102.904 20.624C103.552 21.152 103.876 22.112 103.876 23.504V29.12H81.736C81.472 29.12 81.268 29.192 81.124 29.336C81.004 29.456 80.944 29.612 80.944 29.804V29.912C80.944 30.104 81.004 30.272 81.124 30.416C81.268 30.536 81.472 30.596 81.736 30.596H102.796C103.492 30.596 103.996 30.812 104.308 31.244C104.644 31.676 104.812 32.156 104.812 32.684C104.812 33.164 104.656 33.62 104.344 34.052C104.032 34.508 103.516 34.736 102.796 34.736H78.316C77.524 34.736 76.816 34.604 76.192 34.34C75.592 34.076 75.076 33.728 74.644 33.296C74.212 32.864 73.888 32.36 73.672 31.784C73.456 31.208 73.348 30.608 73.348 29.984V29.552C73.348 28.28 73.78 27.272 74.644 26.528C75.508 25.76 76.732 25.376 78.316 25.376H96.568V24.476C96.568 24.26 96.532 24.116 96.46 24.044C96.388 23.948 96.232 23.9 95.992 23.9H75.688ZM77.02 18.356C76.228 18.356 75.52 18.212 74.896 17.924C74.272 17.636 73.732 17.252 73.276 16.772C72.844 16.292 72.508 15.74 72.268 15.116C72.052 14.492 71.944 13.844 71.944 13.172V12.668C71.944 11.348 72.388 10.256 73.276 9.392C74.164 8.504 75.412 8.06 77.02 8.06H83.176V7.088C83.176 6.872 83.128 6.716 83.032 6.62C82.936 6.5 82.732 6.44 82.42 6.44H74.32C73.528 6.44 72.964 6.2 72.628 5.72C72.292 5.24 72.124 4.724 72.124 4.172C72.124 3.596 72.292 3.068 72.628 2.588C72.988 2.084 73.552 1.832 74.32 1.832H85.624C87.328 1.832 88.54 2.216 89.26 2.984C89.98 3.752 90.34 4.748 90.34 5.972V12.2H80.152C79.6 12.2 79.324 12.452 79.324 12.956V13.064C79.324 13.544 79.6 13.784 80.152 13.784H92.356C93.124 13.784 93.676 14.036 94.012 14.54C94.372 15.02 94.552 15.536 94.552 16.088C94.552 16.64 94.384 17.156 94.048 17.636C93.712 18.116 93.148 18.356 92.356 18.356H77.02ZM96.712 12.128H94.192C93.64 12.128 93.172 12.044 92.788 11.876C92.428 11.708 92.116 11.48 91.852 11.192C91.612 10.904 91.432 10.58 91.312 10.22C91.216 9.86 91.168 9.5 91.168 9.14C91.168 8.78 91.216 8.42 91.312 8.06C91.432 7.7 91.612 7.388 91.852 7.124C92.092 6.836 92.404 6.608 92.788 6.44C93.172 6.248 93.64 6.152 94.192 6.152H96.712V4.424C96.712 3.272 97.072 2.408 97.792 1.832C98.512 1.232 99.34 0.931999 100.276 0.931999C100.732 0.931999 101.176 1.016 101.608 1.184C102.04 1.328 102.424 1.544 102.76 1.832C103.096 2.12 103.36 2.48 103.552 2.912C103.768 3.344 103.876 3.848 103.876 4.424V18.644H96.712V12.128Z" fill="white"/>
<path d="M120.328 28.184V23.072H114.496C112.408 23.072 110.932 22.628 110.068 21.74C109.204 20.828 108.772 19.4 108.772 17.456V7.628C108.772 5.684 109.204 4.268 110.068 3.38C110.932 2.468 112.408 2.012 114.496 2.012H136.312C136.816 2.012 137.236 2.096 137.572 2.264C137.932 2.432 138.22 2.648 138.436 2.912C138.676 3.176 138.844 3.476 138.94 3.812C139.036 4.148 139.084 4.484 139.084 4.82C139.084 5.516 138.868 6.152 138.436 6.728C138.004 7.304 137.296 7.592 136.312 7.592H117.16C116.44 7.592 116.08 7.904 116.08 8.528V9.86H136.096C137.104 9.86 137.812 10.148 138.22 10.724C138.652 11.3 138.868 11.912 138.868 12.56C138.868 13.232 138.652 13.856 138.22 14.432C137.788 14.984 137.08 15.26 136.096 15.26H116.08V16.556C116.08 16.916 116.164 17.168 116.332 17.312C116.524 17.456 116.8 17.528 117.16 17.528H136.888C137.392 17.528 137.812 17.612 138.148 17.78C138.508 17.948 138.796 18.164 139.012 18.428C139.252 18.692 139.42 18.992 139.516 19.328C139.612 19.64 139.66 19.964 139.66 20.3C139.66 20.996 139.444 21.632 139.012 22.208C138.58 22.784 137.872 23.072 136.888 23.072H127.672V28.184H137.824C138.376 28.184 138.844 28.268 139.228 28.436C139.612 28.604 139.924 28.832 140.164 29.12C140.404 29.384 140.572 29.696 140.668 30.056C140.788 30.392 140.848 30.74 140.848 31.1C140.848 31.844 140.608 32.516 140.128 33.116C139.672 33.716 138.904 34.016 137.824 34.016H110.176C109.096 34.016 108.316 33.716 107.836 33.116C107.38 32.516 107.152 31.844 107.152 31.1C107.152 30.74 107.2 30.392 107.296 30.056C107.416 29.696 107.596 29.384 107.836 29.12C108.076 28.832 108.388 28.604 108.772 28.436C109.156 28.268 109.624 28.184 110.176 28.184H120.328ZM163.636 5.252C163.612 6.332 163.444 7.436 163.132 8.564C164.644 8.612 166.144 8.912 167.632 9.464C169.12 10.016 170.464 10.844 171.664 11.948C172.864 13.052 173.86 14.444 174.652 16.124C175.468 17.804 175.96 19.796 176.128 22.1H168.82C168.652 20.876 168.316 19.784 167.812 18.824C167.308 17.84 166.672 17.024 165.904 16.376C165.16 15.704 164.308 15.2 163.348 14.864C162.388 14.528 161.368 14.372 160.288 14.396C159.472 15.524 158.548 16.556 157.516 17.492C156.484 18.428 155.392 19.232 154.24 19.904C153.112 20.576 151.936 21.104 150.712 21.488C149.512 21.872 148.324 22.076 147.148 22.1C146.26 22.124 145.492 21.896 144.844 21.416C144.196 20.912 143.824 20.216 143.728 19.328C143.632 18.464 143.812 17.708 144.268 17.06C144.724 16.412 145.408 15.992 146.32 15.8C147.496 15.536 148.636 15.092 149.74 14.468C150.868 13.844 151.876 13.064 152.764 12.128C153.652 11.168 154.396 10.064 154.996 8.816C155.596 7.568 155.992 6.188 156.184 4.676C156.328 3.524 156.784 2.684 157.552 2.156C158.344 1.604 159.244 1.364 160.252 1.436C161.308 1.532 162.148 1.904 162.772 2.552C163.396 3.2 163.684 4.1 163.636 5.252ZM173.752 27.932C174.304 27.932 174.772 28.028 175.156 28.22C175.564 28.388 175.888 28.616 176.128 28.904C176.392 29.192 176.572 29.528 176.668 29.912C176.788 30.272 176.848 30.632 176.848 30.992C176.848 31.376 176.788 31.748 176.668 32.108C176.548 32.468 176.356 32.792 176.092 33.08C175.852 33.368 175.54 33.596 175.156 33.764C174.772 33.932 174.304 34.016 173.752 34.016H146.248C145.696 34.016 145.228 33.932 144.844 33.764C144.46 33.596 144.136 33.368 143.872 33.08C143.632 32.792 143.452 32.468 143.332 32.108C143.212 31.748 143.152 31.376 143.152 30.992C143.152 30.632 143.2 30.272 143.296 29.912C143.416 29.528 143.596 29.192 143.836 28.904C144.1 28.616 144.424 28.388 144.808 28.22C145.216 28.028 145.696 27.932 146.248 27.932H173.752Z" fill="#3182F6"/>
</svg>
